<?xml version="1.0" standalone="no"?>
<!DOCTYPE svg PUBLIC "-//W3C//DTD SVG 20010904//EN"
 "http://www.w3.org/TR/2001/REC-SVG-20010904/DTD/svg10.dtd">
<svg version="1.0" xmlns="http://www.w3.org/2000/svg"
 width="512.000000pt" height="512.000000pt" viewBox="0 0 512.000000 512.000000"
 preserveAspectRatio="xMidYMid meet">
<metadata>
Created by potrace 1.14, written by Peter Selinger 2001-2017
</metadata>
<g transform="translate(0.000000,512.000000) scale(0.100000,-0.100000)"
fill="#000000" stroke="none">
<path d="M1138 4129 c-77 -8 -166 -32 -220 -60 -29 -15 -38 -26 -38 -44 0 -18
-5 -25 -20 -25 -14 0 -30 -15 -48 -46 -15 -25 -51 -82 -81 -127 -122 -187
-142 -241 -272 -732 -54 -205 -142 -594 -155 -685 -4 -30 -8 -57 -9 -60 -2 -8
-17 -150 -21 -190 -1 -19 -5 -109 -7 -200 -5 -148 -3 -175 19 -268 58 -254
199 -415 373 -425 151 -9 282 32 372 116 46 43 119 129 119 140 0 4 14 29 31
56 25 42 49 93 109 236 4 11 15 36 23 55 17 39 53 137 101 279 27 78 39 99 66
117 l33 23 30 -25 c69 -58 184 -97 283 -97 110 1 201 32 287 97 l38 29 406 -2
407 -2 23 -23 c35 -36 141 -83 213 -96 123 -22 236 1 344 72 l59 38 31 -24
c25 -19 40 -49 80 -157 155 -427 222 -565 337 -692 129 -141 293 -186 469
-127 101 34 159 83 242 205 72 106 107 334 86 572 -10 119 -18 203 -22 233
-35 237 -60 357 -161 760 -134 536 -149 578 -269 764 -29 44 -65 102 -79 128
-19 33 -35 48 -55 53 -21 4 -28 12 -28 28 1 17 -10 27 -47 45 -139 66 -347 76
-474 21 -41 -18 -45 -22 -41 -49 3 -17 1 -31 -4 -31 -19 -3 -24 -5 -51 -24
-26 -16 -45 -18 -170 -16 -172 4 -1574 5 -1776 1 -132 -2 -145 -1 -172 19 -15
12 -34 21 -41 21 -8 0 -15 13 -16 31 -3 43 -4 44 -64 62 -77 24 -163 33 -240
26z"/>
</g>
</svg>
